<svg xmlns="http://www.w3.org/2000/svg" width="134" height="16" viewBox="0 0 134 16">
    <g fill="none" fill-rule="evenodd">
        <g fill="#7B7B7B" fill-rule="nonzero">
            <g>
                <path d="M64.648 50.82h5.167v-3.725h-.955v2.574h-4.212v1.15zm.838 8.085c-.029-.539.336-1.016.855-1.119v-1.109c-1.172.133-1.823 1.148-1.823 2.225 0 1.636 1.194 2.594 2.725 2.594 1.496 0 2.688-.958 2.688-2.594.005-.57-.26-1.11-.71-1.447l.587-.12v-.74h-2.79v2.218h.849v-1.16c.717.067 1.113.502 1.113 1.256 0 1.043-.865 1.435-1.73 1.435-.905 0-1.768-.399-1.768-1.435m-.834-4.58h5.167V53.17h-5.167v1.157zm0 10.45h5.167v-1.16h-5.167v1.16zm2.605-37.83c-1.53 0-2.725.96-2.725 2.596 0 1.636 1.195 2.593 2.725 2.593 1.496 0 2.688-.959 2.688-2.593 0-1.635-1.196-2.595-2.688-2.595m0 4.027c-.904 0-1.767-.399-1.767-1.432 0-1.034.855-1.435 1.767-1.435.865 0 1.73.399 1.73 1.435s-.868 1.432-1.73 1.432m-.05 3.069c-1.715 0-2.555 1.025-2.555 2.394v2.274h5.167V36.44c0-1.612-1.113-2.394-2.616-2.394m1.66 2.472v1.037h-3.256v-.824c0-1.157.672-1.527 1.713-1.527 1.141 0 1.548.644 1.548 1.314m-4.216 30.047v1.197l3.636 1.19v.007l-3.636 1.18v1.197l5.167-1.712v-1.306l-5.167-1.753zm4.015-24.456l1.152-.4v-1.196l-5.167 1.963v1.189l5.17 2.003v-1.174l-1.151-.417-.004-1.968zm-2.736.983v-.016l1.894-.665v1.368l-1.894-.687zM64.433 18.76c-.052.176-.239.918-.252.97-.065.24-.195.4-.426.4-.332 0-.428-.341-.428-.614 0-.4.159-.697.585-.725v-.588c-.69 0-1.053.588-1.053 1.29 0 .607.31 1.224.965 1.224.346 0 .684-.166.837-.74.13-.461.182-.77.273-1.001.053-.178.22-.294.402-.277.25 0 .499.19.499.708 0 .47-.198.851-.705.851v.59c.815-.017 1.172-.636 1.172-1.403 0-.665-.29-1.338-1.029-1.338-.391.003-.733.27-.839.655m.335-8.426V8.644h-.472v1.69h-.862v-1.83h-.498v2.42h3.291v-2.45h-.499v1.863l-.96-.001zm-1.832 2.29v1.482h3.291v-.59h-1.265v-.892c0-.958-.602-1.143-1.008-1.143-.407 0-1.018.185-1.018 1.143m1.564.03v.861h-1.095v-.868c0-.31.112-.582.544-.582.43 0 .545.326.545.59m.359 2.76c.441 0 .95.03.95.788s-.509.798-.95.798h-1.917v.59h2.102c.841 0 1.258-.551 1.258-1.382 0-.832-.417-1.374-1.258-1.374h-2.102v.586l1.917-.005zm-.19-68.403h-.007c-.037-.108-.203-.553-.833-.553-.555 0-.887.375-.887 1.11v1.605h3.291v-.59h-1.355v-.866c0-.54.26-.665.872-.665.166.016.332-.014.483-.086v-.634c-.13.126-.483.182-.869.182-.521 0-.667.296-.696.497m-.23.61v.962h-1.027v-.953c0-.308.084-.584.506-.584.344 0 .52.2.52.574m.336 23.03v-1.522h-.47v1.523h-.863v-1.73h-.498v2.318h3.291v-.586l-1.46-.002zm-.105 35.1h-.006c-.037-.107-.203-.554-.833-.554-.555 0-.887.378-.887 1.11v1.595h3.291V7.32h-1.355v-.865c0-.542.26-.665.872-.665.166.016.333-.015.483-.089v-.63c-.13.133-.483.183-.869.183-.521 0-.667.296-.696.5m-.23.608v.962h-1.027v-.955c0-.305.084-.583.506-.583.344 0 .52.203.52.576m-1.495-37.956h3.291v-.588h-3.29v.588zm3.364 10.744c.016-.371-.116-.734-.366-1.004s-.597-.425-.961-.43v.574c.479.046.86.332.86.857 0 .719-.623 1.02-1.254 1.02-.63 0-1.253-.301-1.253-1.02 0-.49.277-.742.651-.838v-.593c-.709.072-1.12.665-1.123 1.427 0 1.006.782 1.606 1.721 1.606.94 0 1.721-.6 1.721-1.606m-3.36-34.85v.626l3.291 1.289v-.607l-.873-.315v-1.34l.873-.315V-57l-3.29 1.293zm1.98.836l-1.414-.51v-.014l1.413-.507v1.031zm.812 39.45v1.861h-.961v-1.692h-.47v1.695h-.863v-1.83h-.498v2.414h3.291v-2.449h-.499zm0 9.891v1.862h-.961v-1.69h-.47v1.695h-.863v-1.83h-.498v2.414h3.291v-2.446l-.499-.005zm6.024-25.562h-3.29v.588h3.29v-.588zM65.36-41.716v.012l-2.422 1.53v.62h3.291v-.554h-2.42v-.012l2.42-1.527v-.629h-3.29v.56h2.421zm3.028 20.986c0 1.006.781 1.61 1.725 1.61.943 0 1.72-.604 1.72-1.61 0-1.005-.781-1.607-1.72-1.607-.94 0-1.725.603-1.725 1.607m2.978 0c0 .722-.625 1.024-1.253 1.024-.628 0-1.255-.302-1.255-1.024s.618-1.023 1.255-1.023c.637 0 1.253.3 1.253 1.02m-8.428-2.136h3.291v-.588h-3.29v.588zm5.527 5.728v.59h3.29v-2.294h-.498v1.704h-2.792zm-2.236-1.54h-3.29v.56h2.421v.011l-2.422 1.531v.619h3.291v-.56h-2.42v-.012l2.42-1.53v-.618zm4.813-5.998v.012l-2.577.931v.827h3.29v-.558h-2.546v-.015l2.54-.93v-.485l-2.54-.931v-.013h2.54v-.558h-3.284v.818l2.577.902zm-1.052-4.617h-.008c-.109-.297-.391-.49-.702-.48-.55 0-.815.4-.815.998v1.63h3.29v-1.541c0-.87-.402-1.237-.913-1.237-.444 0-.758.22-.847.63m-1.057 1.558v-.958c0-.319.12-.495.45-.495.127-.004.25.047.338.142.087.095.13.224.118.353v.958h-.906zm2.345-1.039v1.039h-1.026v-1.039c0-.358.181-.565.511-.565s.513.207.513.565m-2.816-3.99l3.29 1.289v-.605l-.874-.31v-1.33l.873-.317v-.63l-3.29 1.295v.608zm1.981.207l-1.412-.498v-.015l1.412-.504v1.017zm-2.058 18.2c0 1.004.781 1.61 1.725 1.61.943 0 1.72-.606 1.72-1.61s-.781-1.61-1.72-1.61c-.94 0-1.725.602-1.725 1.61m2.978 0c0 .72-.625 1.02-1.253 1.02-.628 0-1.255-.3-1.255-1.02s.618-1.019 1.255-1.019c.637 0 1.253.298 1.253 1.019m-8.428-10.763l3.291 1.29v-.606l-.873-.314v-1.342l.873-.314v-.63l-3.29 1.296v.62zm1.98.21l-1.414-.508v-.017l1.413-.5v1.025zm-1.98-12.378l3.291 1.288v-.607l-.873-.315v-1.34l.873-.312v-.633l-3.29 1.291v.628zm1.98.206l-1.414-.508v-.016l1.413-.504v1.028zm.442 1.996v.009l-2.422 1.53v.625h3.291v-.56h-2.42v-.014l2.42-1.53v-.623h-3.29v.561l2.421.002zm.87 39.056h-3.292v.588h3.291v-.588zm-1.461-52.37v-1.694h-.47v1.695h-.863v-1.83h-.498v2.41h3.291v-2.445h-.499v1.862l-.961.003zm3.696 45.331v1.392h3.29v-1.392c0-1.036-.737-1.483-1.642-1.483-.906 0-1.648.447-1.648 1.483m2.816.225v.576h-2.345v-.576c0-.922.511-1.121 1.173-1.121s1.172.2 1.172 1.121M65.36 1.06v.009l-2.423 1.534v.618h3.291v-.556h-2.42v-.016l2.42-1.524V.508h-3.29v.556l2.421-.004zm-2.423-3.702V.079h.498V-.985h2.793v-.588h-2.793v-1.064l-.498-.005zm7.358-3.069v-1.694h-.473v1.694h-.86v-1.828h-.498v2.412h3.29v-2.448h-.498v1.862l-.96.002zm-4.067-41.336h-3.29v.587h3.29v-.587zm5.137 36.13c0 .719-.625 1.022-1.253 1.022-.628 0-1.255-.303-1.255-1.023 0-.49.276-.738.652-.838v-.588c-.708.073-1.12.665-1.125 1.426 0 1.004.782 1.608 1.725 1.608.943 0 1.724-.605 1.724-1.608 0-.814-.545-1.382-1.33-1.43v.57c.476.047.862.335.862.856m-5.53-33.529c0 .724-.624 1.025-1.255 1.025-.63 0-1.253-.301-1.253-1.025 0-.488.277-.738.651-.836v-.584c-.709.069-1.12.665-1.123 1.42 0 1.01.782 1.61 1.721 1.61.94 0 1.721-.6 1.721-1.61 0-.811-.542-1.379-1.327-1.427v.57c.479.049.86.339.86.857m-2.893 33.53v1.39h3.291v-1.39c0-1.036-.74-1.48-1.648-1.48-.908 0-1.643.444-1.643 1.48m2.818.224v.58H63.41v-.58c0-.918.521-1.119 1.173-1.119.651 0 1.172.201 1.172 1.119m-.39 2.47v.008l-2.428 1.532v.62h3.291v-.556h-2.42v-.015l2.42-1.528v-.621h-3.29v.56h2.426zm-3.101 33.66H61V73h1.264V25.433zm10.736 0h-1.265V73H73V25.433z" transform="translate(-96 -4) translate(96 4) rotate(90 67 8)"/>
            </g>
        </g>
    </g>
</svg>
