<svg xmlns="http://www.w3.org/2000/svg" xmlns:xlink="http://www.w3.org/1999/xlink" width="168" height="29"><defs><path id="a" d="M106.406 11.205c1.293 0 2.322.397 3.087 1.162.823.766 1.234 1.73 1.234 2.893 0 1.589-.676 3.007-2.028 4.255-1.323 1.22-2.822 1.843-4.468 1.843-1.117 0-1.97-.312-2.587-.936-.294 1.333-.559 2.695-.853 4.056-.058.369-.323.567-.735.567h-1.234c-.412 0-.617-.17-.617-.538 0-.057 0-.142.029-.199.882-4.17 1.793-8.339 2.704-12.508.089-.397.294-.567.647-.51h1.294c.44 0 .676.141.676.453 0 .057 0 .142-.03.227.853-.51 1.823-.765 2.881-.765zm.794 6.58c.617-.624.911-1.333.911-2.07 0-.653-.235-1.135-.676-1.504-.382-.34-.882-.482-1.47-.482-.911 0-1.705.34-2.41 1.05-.618.595-.912 1.304-.912 2.07 0 .652.236 1.163.676 1.531.383.312.853.482 1.44.482.912 0 1.735-.368 2.44-1.077zm13.556-5.432c.802.796 1.203 1.797 1.174 3.034 0 1.65-.659 3.152-1.977 4.448-1.26 1.267-2.722 1.915-4.326 1.915-1.232 0-2.235-.383-3.037-1.178-.803-.796-1.204-1.827-1.204-3.064 0-1.65.66-3.122 1.977-4.418 1.29-1.267 2.751-1.885 4.413-1.885 1.203 0 2.206.382 2.98 1.148zm-2.293 5.656c.602-.677.889-1.414.917-2.18 0-.648-.229-1.149-.659-1.532-.372-.324-.83-.5-1.404-.5-.888 0-1.69.383-2.35 1.12-.572.618-.859 1.325-.859 2.12 0 .677.2 1.208.63 1.59.373.325.832.501 1.376.501.888 0 1.662-.383 2.35-1.119zm11.011-6.804c1.294 0 2.323.397 3.087 1.162.823.766 1.234 1.73 1.234 2.893 0 1.589-.676 3.007-2.028 4.255-1.323 1.22-2.822 1.843-4.468 1.843-1.117 0-1.97-.312-2.587-.936-.294 1.333-.558 2.695-.852 4.056-.06.369-.324.567-.735.567h-1.235c-.412 0-.617-.17-.617-.538 0-.057.03-.142.03-.199.91-4.17 1.792-8.339 2.704-12.508.088-.397.294-.567.646-.51h1.294c.44 0 .676.141.676.453 0 .057 0 .142-.03.227.853-.51 1.823-.765 2.881-.765zm.794 6.58c.617-.624.911-1.333.882-2.07 0-.653-.235-1.135-.676-1.504-.382-.34-.882-.482-1.47-.482-.911 0-1.705.34-2.41 1.05-.618.595-.912 1.304-.912 2.07 0 .652.235 1.163.676 1.531.412.312.882.482 1.47.482.911 0 1.734-.368 2.44-1.077zM145 12.323c0 .028-.03.112-.03.28-.625 2.806-1.28 5.64-1.906 8.446-.06.364-.328.56-.745.56h-1.162c-.417 0-.655-.168-.655-.504-.536.42-1.281.645-2.205.645-.953 0-1.757-.196-2.413-.617-.953-.617-1.43-1.487-1.43-2.666 0-.336.03-.645.12-.982.387-1.711.774-3.394 1.161-5.106.09-.393.298-.561.656-.505h1.37c.447 0 .656.14.656.45 0 .055-.03.111-.03.195-.388 1.628-.745 3.283-1.132 4.91-.03.084-.03.197-.03.337 0 .505.179.87.506 1.15.298.253.656.365 1.073.365.596 0 1.132-.168 1.579-.505.387-.309.655-.73.774-1.319.387-1.711.775-3.394 1.162-5.078.06-.393.268-.561.626-.505h1.4c.446 0 .655.14.655.45zm4.614-3.945c0 .057-.03.172-.03.315-.864 4.152-1.757 8.332-2.621 12.484-.087.373-.317.573-.72.573h-1.24c-.432 0-.662-.172-.662-.544 0-.057.029-.143.029-.2.893-4.21 1.786-8.39 2.68-12.57.086-.402.287-.573.633-.516h1.326c.403 0 .605.143.605.458zm9.886 3.416a.7.7 0 01-.084.265c-.592 3.004-1.211 5.98-1.802 8.955-.056.383-.31.589-.704.589h-1.07c-.422 0-.647-.177-.647-.56 0-.059 0-.118.028-.206l.084-.089c-.816.678-1.773 1.002-2.843 1.002-1.21 0-2.196-.412-2.984-1.208-.788-.795-1.183-1.797-1.183-3.034 0-1.62.648-3.093 1.943-4.389 1.267-1.266 2.674-1.914 4.28-1.914 1.069 0 1.913.294 2.533.883 0-.088.028-.176.028-.265.084-.412.281-.589.62-.53h1.182c.422 0 .619.177.619.5zm-4.28 6.274c.592-.648.902-1.385.874-2.18 0-.648-.226-1.149-.648-1.532-.366-.353-.844-.5-1.408-.5-.872 0-1.632.353-2.308 1.09a3.037 3.037 0 00-.873 2.15c0 .677.226 1.208.648 1.59.366.325.816.501 1.38.501.872 0 1.66-.383 2.336-1.12zm11.57-6.863c.413 0 .62.148.62.476 0 .09 0 .15-.03.238-.089.447-.177.864-.266 1.311-.059.387-.325.596-.738.596h-.472c-1.446.03-2.331.655-2.627 1.936-.383 1.788-.737 3.605-1.121 5.392-.059.387-.325.596-.738.596h-1.24c-.442 0-.678-.179-.678-.566 0-.06.03-.12.03-.209.62-3.038 1.269-6.047 1.918-9.085.088-.417.295-.596.649-.537h1.269c.413 0 .65.15.679.447.442-.387 1.18-.566 2.243-.595h.501zm-76.724 0c1.204 0 2.207.382 2.98 1.178.803.795 1.204 1.797 1.204 3.004 0 1.65-.66 3.152-1.977 4.448-1.261 1.267-2.723 1.915-4.327 1.915-1.233 0-2.236-.383-3.038-1.178-.802-.796-1.203-1.827-1.203-3.064 0-1.65.63-3.122 1.948-4.418 1.29-1.267 2.751-1.885 4.413-1.885zm.688 6.804c.602-.648.917-1.384.917-2.18 0-.648-.23-1.149-.66-1.532-.372-.324-.83-.5-1.403-.5-.889 0-1.662.383-2.35 1.12-.573.618-.86 1.325-.86 2.12 0 .677.2 1.208.63 1.59.373.325.832.501 1.376.501.888 0 1.662-.383 2.35-1.119zm-11.38-6.804c1.355 0 2.457.502 3.304 1.476.254.296.367.503.367.65 0 .207-.113.414-.339.562-.367.236-.706.472-1.073.709-.141.088-.282.147-.395.147-.17 0-.368-.088-.565-.295-.396-.443-.932-.65-1.639-.65-.903 0-1.694.384-2.372 1.122-.565.62-.848 1.33-.848 2.127 0 .68.226 1.211.65 1.595.367.325.847.503 1.384.503.876 0 1.61-.355 2.26-1.123.17-.207.339-.295.536-.295.085 0 .198.03.34.088.31.148.62.325.932.473.254.148.395.295.395.502 0 .266-.282.62-.79 1.152-1.244 1.211-2.628 1.802-4.153 1.802-1.243 0-2.232-.384-3.023-1.182-.79-.797-1.186-1.831-1.186-3.072 0-1.624.622-3.101 1.92-4.401 1.272-1.27 2.684-1.89 4.294-1.89zm-8.275.62c.953.59 1.43 1.464 1.4 2.562 0 .31-.03.648-.12.986a319.092 319.092 0 01-1.131 5.155c-.09.366-.358.563-.775.563h-1.28c-.447 0-.686-.17-.686-.535 0-.057.03-.113.03-.17.387-1.661.745-3.295 1.132-4.928.03-.113.03-.226.03-.367 0-.366-.09-.675-.328-.929-.298-.338-.715-.507-1.25-.507-.567 0-1.073.169-1.49.479-.447.338-.715.817-.864 1.436-.387 1.662-.745 3.296-1.132 4.958-.06.366-.327.563-.744.563H62.64c-.447 0-.685-.17-.685-.535 0-.057.03-.113.03-.197.625-2.873 1.28-5.718 1.935-8.591.06-.394.298-.563.656-.507h1.25c.418 0 .626.14.656.422.566-.31 1.31-.478 2.204-.478.953 0 1.787.197 2.413.62zm-8.485-.06c0 .058 0 .147-.085.294-.591 3.004-1.21 5.98-1.802 8.955-.056.383-.31.589-.703.589h-1.07c-.422 0-.648-.177-.648-.56 0-.059 0-.118.029-.206l.084-.089c-.816.678-1.774 1.002-2.843 1.002-1.21 0-2.196-.412-2.985-1.208-.788-.795-1.182-1.797-1.182-3.034 0-1.62.648-3.093 1.943-4.389 1.266-1.266 2.674-1.914 4.279-1.914 1.07 0 1.914.294 2.533.883 0-.088.029-.176.029-.265.084-.412.281-.589.619-.53h1.182c.423 0 .62.147.62.471zm-4.251 6.273c.59-.677.872-1.384.872-2.18 0-.647-.225-1.148-.647-1.531-.366-.354-.845-.5-1.408-.5-.872 0-1.633.353-2.308 1.09a3.037 3.037 0 00-.873 2.15c0 .677.225 1.207.648 1.59.366.324.816.5 1.379.5.873 0 1.661-.382 2.337-1.119zm-12.428-7.093c1.207 0 2.218.368 2.948 1.162.815.765 1.208 1.729 1.208 2.89 0 1.588-.646 3.005-1.938 4.252-1.291 1.218-2.724 1.842-4.296 1.842-1.067 0-1.91-.312-2.528-.935v.198c-.056.397-.308.595-.702.595h-1.123c-.421 0-.618-.17-.618-.538 0-.057.028-.114.028-.199.9-4.166 1.77-8.303 2.64-12.441.056-.397.253-.567.59-.51h1.32c.393 0 .59.141.59.453 0 .057 0 .142-.029.255-.28 1.275-.561 2.522-.842 3.77.786-.539 1.713-.794 2.752-.794zm.73 6.575c.618-.624.899-1.332.87-2.04 0-.624-.196-1.134-.645-1.503-.365-.311-.843-.481-1.433-.481-.87 0-1.656.34-2.33 1.048-.562.595-.87 1.304-.87 2.07 0 .623.224 1.133.645 1.501.365.312.842.482 1.404.482.87 0 1.657-.369 2.359-1.077zM34.147 0c1.756 0 3.052 1.605 2.706 3.295-1.67 7.852-3.34 15.704-5.01 23.527A2.747 2.747 0 0129.137 29H11.056a2 2 0 01-1.955-2.422l.12-.56a2 2 0 012.748-1.415c1.704.734 3.137 1.102 4.297 1.102 3.743 0 7.14-1.462 10.164-4.385a16.11 16.11 0 002.85-3.553c.317-.545-.086-1.232-.72-1.232h-3.598a.772.772 0 00-.663.343c-.23.316-.518.66-.806.975-1.785 1.862-3.83 2.78-6.19 2.78-1.526 0-2.793-.43-3.8-1.29a5.05 5.05 0 01-1.498-2.235.83.83 0 00-.777-.573H6.822a.803.803 0 00-.806.659c-.531 2.499-1.325 6.2-2.382 11.102a.891.891 0 01-.871.704C1.006 29-.29 27.395.056 25.705 1.726 17.853 3.396 10 5.066 2.178A2.747 2.747 0 017.772 0h.663a1 1 0 01.977 1.21 2371.8 2371.8 0 00-2.187 10.252.829.829 0 00.807 1.003h3.685a.83.83 0 00.749-.458 7.76 7.76 0 011.583-2.235c1.757-1.863 3.8-2.809 6.104-2.809 1.555 0 2.85.43 3.859 1.29 1.036.888 1.64 2.063 1.756 3.467.029.43.403.745.835.745h3.599c.46 0 .806-.343.835-.802v-.287c0-2.75-.921-5.043-2.764-6.82-1.843-1.776-4.175-2.665-6.997-2.665-1.266-.015-3.06.447-5.382 1.385a1.077 1.077 0 01-1.456-1.227l.103-.475A2 2 0 0116.496 0h17.65z"/></defs><use fill="#FFF" xlink:href="#a"/></svg>